<svg width="122" height="51" viewBox="0 0 122 51" fill="none" xmlns="http://www.w3.org/2000/svg">
<path d="M12.7266 15.4454V18.1993H5.03906V32.5079H1.53516V15.4454H12.7266ZM24.3089 15.4454V32.5079H20.805V15.4454H24.3089ZM29.5589 15.4454V18.1993H15.637V15.4454H29.5589ZM39.8873 26.4259H35.5397V23.6837H39.8873C40.5592 23.6837 41.1061 23.5743 41.528 23.3556C41.9498 23.129 42.2584 22.8165 42.4538 22.4181C42.6491 22.0197 42.7467 21.5704 42.7467 21.0704C42.7467 20.5626 42.6491 20.09 42.4538 19.6525C42.2584 19.215 41.9498 18.8634 41.528 18.5978C41.1061 18.3322 40.5592 18.1993 39.8873 18.1993H36.7584V32.5079H33.2428V15.4454H39.8873C41.2233 15.4454 42.3678 15.6876 43.3209 16.172C44.2819 16.6486 45.0163 17.3087 45.5241 18.1525C46.0319 18.9962 46.2858 19.9611 46.2858 21.047C46.2858 22.1486 46.0319 23.1017 45.5241 23.9064C45.0163 24.7111 44.2819 25.3322 43.3209 25.7697C42.3678 26.2072 41.2233 26.4259 39.8873 26.4259ZM53.9189 15.4454V32.5079H50.4033V15.4454H53.9189ZM63.9736 15.4454L57.4345 25.465H53.1338L52.6884 22.3361H55.5595L59.708 15.4454H63.9736ZM60.3525 32.5079L55.5713 24.879L58.0088 22.3712L64.5244 32.5079H60.3525Z" fill="#033483"/>
<path d="M6.18262 45.9341H8.08057C8.04248 46.5562 7.87109 47.1084 7.56641 47.5908C7.26595 48.0732 6.84489 48.4499 6.30322 48.7207C5.76579 48.9915 5.11833 49.127 4.36084 49.127C3.76839 49.127 3.2373 49.0254 2.76758 48.8223C2.29785 48.6149 1.89583 48.3187 1.56152 47.9336C1.23145 47.5485 0.979655 47.083 0.806152 46.5371C0.63265 45.9912 0.545898 45.3797 0.545898 44.7026V44.0615C0.545898 43.3844 0.634766 42.7729 0.8125 42.2271C0.994466 41.6769 1.2526 41.2093 1.58691 40.8242C1.92546 40.4391 2.32959 40.1429 2.79932 39.9355C3.26904 39.7282 3.79378 39.6245 4.37354 39.6245C5.14372 39.6245 5.79329 39.7642 6.32227 40.0435C6.85547 40.3228 7.26807 40.7078 7.56006 41.1987C7.85628 41.6896 8.03402 42.2482 8.09326 42.8745H6.18896C6.16781 42.5021 6.09375 42.1868 5.9668 41.9287C5.83984 41.6663 5.6473 41.4696 5.38916 41.3384C5.13525 41.203 4.79671 41.1353 4.37354 41.1353C4.05615 41.1353 3.77897 41.1945 3.54199 41.313C3.30501 41.4315 3.10612 41.6113 2.94531 41.8525C2.78451 42.0938 2.6639 42.3984 2.5835 42.7666C2.50732 43.1305 2.46924 43.5579 2.46924 44.0488V44.7026C2.46924 45.1808 2.50521 45.6019 2.57715 45.9658C2.64909 46.3255 2.75911 46.6302 2.90723 46.8799C3.05957 47.1253 3.25423 47.3115 3.49121 47.4385C3.73242 47.5612 4.0223 47.6226 4.36084 47.6226C4.75863 47.6226 5.08659 47.5591 5.34473 47.4321C5.60286 47.3052 5.79964 47.1169 5.93506 46.8672C6.07471 46.6175 6.15723 46.3065 6.18262 45.9341ZM13.0889 41.3384L10.5752 49H8.55029L11.9844 39.7578H13.2729L13.0889 41.3384ZM15.1772 49L12.6572 41.3384L12.4541 39.7578H13.7554L17.2085 49H15.1772ZM15.063 45.5596V47.0513H10.1816V45.5596H15.063ZM24.229 43.522V45.0073H19.4048V43.522H24.229ZM19.9697 39.7578V49H18.0654V39.7578H19.9697ZM25.5874 39.7578V49H23.6895V39.7578H25.5874ZM29.1548 39.7578V49H27.2505V39.7578H29.1548ZM34.6011 39.7578L31.0591 45.1851H28.7295L28.4883 43.4902H30.0435L32.2905 39.7578H34.6011ZM32.6396 49L30.0498 44.8677L31.3701 43.5093L34.8994 49H32.6396ZM39.7808 39.7578V49H37.8828V39.7578H39.7808ZM42.6245 39.7578V41.2495H35.0835V39.7578H42.6245ZM45.5508 44.3154V45.75H41.9644V44.3154H45.5508ZM54.7168 39.7578V49H52.8125V41.2495H49.0991V49H47.1948V39.7578H54.7168ZM62.5815 47.5146V49H57.6621V47.5146H62.5815ZM58.2842 39.7578V49H56.3799V39.7578H58.2842ZM61.9404 43.522V44.9692H57.6621V43.522H61.9404ZM62.5752 39.7578V41.2495H57.6621V39.7578H62.5752ZM67.9517 39.7578V49H66.0537V39.7578H67.9517ZM70.7954 39.7578V41.2495H63.2544V39.7578H70.7954ZM78.0825 47.5146V49H73.1631V47.5146H78.0825ZM73.7852 39.7578V49H71.8809V39.7578H73.7852ZM77.4414 43.522V44.9692H73.1631V43.522H77.4414ZM78.0762 39.7578V41.2495H73.1631V39.7578H78.0762ZM82.7925 45.7056H80.4375V44.2202H82.7925C83.1564 44.2202 83.4526 44.161 83.6812 44.0425C83.9097 43.9198 84.0768 43.7505 84.1826 43.5347C84.2884 43.3188 84.3413 43.0755 84.3413 42.8047C84.3413 42.5296 84.2884 42.2736 84.1826 42.0366C84.0768 41.7996 83.9097 41.6092 83.6812 41.4653C83.4526 41.3215 83.1564 41.2495 82.7925 41.2495H81.0977V49H79.1934V39.7578H82.7925C83.5161 39.7578 84.1361 39.889 84.6523 40.1514C85.1729 40.4095 85.5706 40.7671 85.8457 41.2241C86.1208 41.6812 86.2583 42.2038 86.2583 42.792C86.2583 43.3887 86.1208 43.9049 85.8457 44.3408C85.5706 44.7767 85.1729 45.1131 84.6523 45.3501C84.1361 45.5871 83.5161 45.7056 82.7925 45.7056ZM93.6152 39.7578V41.2495H89.4575V49H87.5596V39.7578H93.6152ZM88.8037 43.1284H90.9619C91.6898 43.1284 92.3161 43.249 92.8408 43.4902C93.3656 43.7314 93.7697 44.07 94.0532 44.5059C94.3368 44.9417 94.4785 45.4495 94.4785 46.0293C94.4785 46.4694 94.3981 46.8714 94.2373 47.2354C94.0765 47.5951 93.8416 47.9082 93.5327 48.1748C93.228 48.4372 92.8599 48.6403 92.4282 48.7842C91.9966 48.9281 91.5078 49 90.9619 49H87.5596V39.7578H89.4702V47.5146H90.9619C91.3258 47.5146 91.6263 47.4469 91.8633 47.3115C92.1003 47.1761 92.278 46.9963 92.3965 46.772C92.5192 46.5435 92.5806 46.2917 92.5806 46.0166C92.5806 45.7542 92.5192 45.5173 92.3965 45.3057C92.278 45.0898 92.1003 44.9206 91.8633 44.7979C91.6263 44.6751 91.3258 44.6138 90.9619 44.6138H88.8037V43.1284ZM98.5093 45.6484L100.782 39.7578H102.832L99.6646 47.21C99.5545 47.4639 99.4276 47.7072 99.2837 47.9399C99.144 48.1685 98.9769 48.3737 98.7822 48.5557C98.5876 48.7334 98.3548 48.8752 98.084 48.981C97.8132 49.0825 97.4894 49.1333 97.1128 49.1333C97.0197 49.1333 96.9054 49.1312 96.77 49.127C96.6346 49.1227 96.5267 49.1164 96.4463 49.1079L96.4336 47.6226C96.4844 47.6353 96.5648 47.6437 96.6748 47.6479C96.7848 47.6479 96.8652 47.6479 96.916 47.6479C97.1657 47.6479 97.3625 47.612 97.5063 47.54C97.6502 47.4681 97.7645 47.3665 97.8491 47.2354C97.938 47.0999 98.0163 46.9412 98.084 46.7593L98.5093 45.6484ZM97.0049 39.7578L99.1123 44.3345L99.7026 46.4355L98.2871 46.4609L94.9609 39.7578H97.0049ZM107.421 45.7056H105.066V44.2202H107.421C107.785 44.2202 108.082 44.161 108.31 44.0425C108.539 43.9198 108.706 43.7505 108.812 43.5347C108.917 43.3188 108.97 43.0755 108.97 42.8047C108.97 42.5296 108.917 42.2736 108.812 42.0366C108.706 41.7996 108.539 41.6092 108.31 41.4653C108.082 41.3215 107.785 41.2495 107.421 41.2495H105.727V49H103.822V39.7578H107.421C108.145 39.7578 108.765 39.889 109.281 40.1514C109.802 40.4095 110.2 40.7671 110.475 41.2241C110.75 41.6812 110.887 42.2038 110.887 42.792C110.887 43.3887 110.75 43.9049 110.475 44.3408C110.2 44.7767 109.802 45.1131 109.281 45.3501C108.765 45.5871 108.145 45.7056 107.421 45.7056ZM118.27 39.7578V41.2495H114.105V49H112.208V39.7578H118.27Z" fill="#033483"/>
<path d="M84.6099 35.1346C74.0984 13.5506 62.8296 7.06287 35.4973 3.04528C62.9851 2.38268 75.9308 7.79809 94.8214 27.2988L84.6099 35.1346Z" fill="#FA0202"/>
<path d="M97.739 25.06C86.1669 10.4876 76.1328 5.45929 52.5165 1.55279C78.8259 0.793396 90.9679 4.23081 106.978 18.7168L97.739 25.06Z" fill="#033483"/>
<path d="M109.409 16.478C97.2402 5.49723 88.0936 2.56112 69.5357 0.433364C88.7659 -0.93624 99.9948 0.527007 116.703 10.881L109.409 16.478Z" fill="#EAEAEA"/>
</svg>
